<svg width="200" height="222" viewBox="0 0 200 222" fill="none" xmlns="http://www.w3.org/2000/svg">
<path d="M168 22C183.872 22 197.041 33.556 199.562 48.7129C190.047 49.8814 181.327 52.3101 173.4 56C162 61.2 152.3 68.2998 144.3 77.2998C136.3 86.0998 130.2 95.8004 126 106.4C122 117 120 127.6 120 138.2C120 149.4 122.3 159.9 126.9 169.7C131.5 179.3 138.3 187.1 147.3 193.1C156.5 199.1 167.7 202.1 180.9 202.1C186.428 202.1 192.234 201.485 198.319 200.258C194.044 212.899 182.085 222 168 222H32C14.3269 222 0 207.673 0 190V54C2.83492e-06 36.3269 14.3269 22 32 22H168ZM200 165.637C197.478 164.95 195.011 164.005 192.6 162.8C187 159.8 182.4 155 178.8 148.4C175.4 141.8 173.7 133.2 173.7 122.6C173.7 111.8 175.3 102.7 178.5 95.2998C181.9 87.8999 185.9 82.3 190.5 78.5C193.809 75.8802 196.976 74.1632 200 73.3496V165.637Z" fill="#374A59"/>
<path d="M62.95 180.6C59.85 180.6 57.1 179.8 54.7 178.2C52.4 176.6 51.3 174.2 51.4 171C51.6 165.4 52 159.2 52.6 152.4C53.3 145.6 54.1 138.7 55 131.7C55.9 124.6 56.8 117.8 57.7 111.3C58.7 104.8 59.6 99 60.4 93.9C58.6 93.7 56.85 93.55 55.15 93.45C53.45 93.35 51.9 93.3 50.5 93.3C46.3 93.3 42.5 93.7 39.1 94.5C35.8 95.3 33 96.7 30.7 98.7C30.7 92.4 31.2 87.3 32.2 83.4C33.3 79.4 35.25 76.5 38.05 74.7C40.95 72.9 45.15 72 50.65 72C54.65 72 59.1 72.35 64 73.05C69 73.65 74.05 74.3 79.15 75C84.25 75.7 89 76.05 93.4 76.05C97 76.05 100.2 75.7 103 75C105.9 74.3 108.1 73.05 109.6 71.25C111.8 71.95 113.5 73.5 114.7 75.9C115.9 78.2 116.5 80.75 116.5 83.55C116.5 86.05 115.95 88.5 114.85 90.9C113.75 93.2 112 95.15 109.6 96.75C107.2 98.25 103.95 99 99.85 99C97.95 99 95.6 98.85 92.8 98.55C90.1 98.15 87.2 97.75 84.1 97.35C83 103.35 81.85 110.55 80.65 118.95C79.55 127.25 78.6 136.2 77.8 145.8C77.1 155.4 76.65 165.15 76.45 175.05C74.65 176.95 72.5 178.35 70 179.25C67.6 180.15 65.25 180.6 62.95 180.6Z" fill="#84BEEF"/>
</svg>
